<svg width="60" height="60" viewBox="0 0 60 60" fill="none" xmlns="http://www.w3.org/2000/svg">
<g clip-path="url(#clip0_23_270)">
<path d="M40.9112 37.6273C40.724 37.1079 40.1512 36.8386 39.6319 37.0258C39.1125 37.213 38.8432 37.7858 39.0304 38.3051C39.035 38.3178 39.0399 38.3304 39.045 38.343C39.9567 40.7221 40.0227 42.5414 39.225 43.3411C38.2573 44.3067 35.8473 44.0048 32.7765 42.5354C28.6653 40.4007 24.9284 37.6121 21.7118 34.2786C13.8818 26.4477 10.6511 18.7637 12.6493 16.7655C13.2869 16.2619 14.1157 16.0685 14.9104 16.2377C15.461 16.2781 15.9402 15.8646 15.9806 15.314C16.0198 14.7818 15.634 14.3128 15.1044 14.2484C13.7145 14.0025 12.2886 14.4077 11.2359 15.348C7.5733 19.0096 13.1721 28.5609 20.2983 35.6881C23.6747 39.182 27.5979 42.1022 31.9138 44.3337C32.6954 44.7079 33.5008 45.0302 34.3249 45.2983L27.2226 47.9913C17.7388 44.3857 10.9116 35.978 9.32961 25.9559C9.24402 25.4105 8.73247 25.0376 8.18706 25.1232C7.64165 25.2088 7.26879 25.7203 7.35438 26.2657C7.51132 27.2654 7.72124 28.265 7.97814 29.2426C10.28 37.9641 16.3428 45.2094 24.5217 49.0129L12.8322 53.4362C12.7786 53.3467 12.7112 53.2665 12.6323 53.1983C9.66148 50.8131 7.79746 47.315 7.47434 43.519L7.01052 37.9022C6.97403 37.3581 6.50322 36.9465 5.95893 36.983C5.94856 36.9837 5.93819 36.9844 5.92794 36.9856C5.37765 37.0293 4.96694 37.511 5.01067 38.0613C5.0108 38.0635 5.01105 38.0659 5.0113 38.0682L5.48311 43.683C5.83448 47.7405 7.72724 51.509 10.7721 54.2139L2.4333 57.3706L3.93272 51.217C4.06354 50.6804 3.73467 50.1393 3.198 50.0085C2.66134 49.8777 2.1203 50.2066 1.98947 50.7432L0.0392343 58.7401C-0.0922144 59.2763 0.235908 59.8176 0.772199 59.9489C0.968872 59.9971 1.17542 59.9844 1.36472 59.9126L38.3503 45.9181C38.4092 45.8894 38.4648 45.8545 38.5162 45.8141C39.3167 45.6912 40.0588 45.3211 40.6384 44.7555C41.6289 43.7649 42.4816 41.7227 40.9112 37.6273Z" fill="#F2994A"/>
<path d="M50.3445 35.0493C44.9407 33.0263 39.1001 32.4591 33.4081 33.4049L29.8365 34.0047C29.2943 34.1089 28.9393 34.6328 29.0435 35.175C29.1443 35.6988 29.6384 36.0512 30.1664 35.9759L33.737 35.3811C39.0826 34.4923 44.5681 35.0254 49.6428 36.9265C49.7554 36.9664 49.8742 36.9864 49.9937 36.9855C50.5457 36.9864 50.994 36.5397 50.9949 35.9875C50.9956 35.5696 50.7362 35.1953 50.3445 35.0493Z" fill="#F2994A"/>
<path d="M53.8984 19.5624C53.661 19.0638 53.0645 18.8521 52.5659 19.0896L31.5741 29.0857C31.0757 29.323 30.8639 29.9193 31.1012 30.4179C31.1012 30.418 31.1013 30.4182 31.1013 30.4182C31.3386 30.9166 31.935 31.1284 32.4335 30.8911C32.4336 30.8911 32.4337 30.891 32.4338 30.891L53.4256 20.8948C53.9242 20.6574 54.1358 20.0609 53.8984 19.5624Z" fill="#F2994A"/>
<path d="M24.2876 6.78444C24.1776 6.2434 23.65 5.89391 23.1089 6.00386C22.5679 6.11382 22.2184 6.64149 22.3284 7.18253C22.3307 7.19453 22.3335 7.2064 22.3364 7.21827C23.6016 12.8709 23.0802 18.7771 20.844 24.1207L19.3905 27.6083C19.1805 28.1165 19.4203 28.6989 19.9273 28.9118C20.0488 28.9629 20.1793 28.989 20.3112 28.9888C20.7146 28.9888 21.0785 28.7464 21.2338 28.374L22.6882 24.8904C25.0842 19.1665 25.6431 12.8397 24.2876 6.78444Z" fill="#F2994A"/>
<path d="M54.9915 35.9861C53.3353 35.9861 51.9927 37.3287 51.9927 38.9849C51.9927 40.6411 53.3353 41.9837 54.9915 41.9837C56.6477 41.9837 57.9903 40.6411 57.9903 38.9849C57.9903 37.3287 56.6477 35.9861 54.9915 35.9861ZM54.9915 39.9845C54.4395 39.9845 53.9919 39.537 53.9919 38.9849C53.9919 38.4329 54.4395 37.9853 54.9915 37.9853C55.5435 37.9853 55.9911 38.4329 55.9911 38.9849C55.9911 39.537 55.5435 39.9845 54.9915 39.9845Z" fill="#F2994A"/>
<path d="M31.0013 7.99683C29.345 7.99683 28.0024 9.33943 28.0024 10.9957C28.0024 12.6519 29.345 13.9945 31.0013 13.9945C32.6575 13.9945 34.0001 12.6519 34.0001 10.9957C34.0001 9.33943 32.6575 7.99683 31.0013 7.99683ZM31.0013 11.9953C30.4492 11.9953 30.0017 11.5477 30.0017 10.9957C30.0017 10.4436 30.4492 9.99605 31.0013 9.99605C31.5533 9.99605 32.0009 10.4436 32.0009 10.9957C32.0009 11.5477 31.5533 11.9953 31.0013 11.9953Z" fill="#F2994A"/>
<path d="M22.0046 3.99844C23.1087 3.99844 24.0038 3.10336 24.0038 1.99922C24.0038 0.895082 23.1087 0 22.0046 0C20.9005 0 20.0054 0.895082 20.0054 1.99922C20.0054 3.10336 20.9005 3.99844 22.0046 3.99844Z" fill="#F2994A"/>
<path d="M49.9938 4.99805C49.4417 4.99805 48.9941 5.44562 48.9941 5.99766V6.99727C48.9941 7.5493 49.4417 7.99688 49.9938 7.99688C50.5458 7.99688 50.9934 7.5493 50.9934 6.99727V5.99766C50.9934 5.44562 50.5458 4.99805 49.9938 4.99805Z" fill="#F2994A"/>
<path d="M49.9938 0C49.4417 0 48.9941 0.447576 48.9941 0.999611V1.99922C48.9941 2.55126 49.4417 2.99883 49.9938 2.99883C50.5458 2.99883 50.9934 2.55126 50.9934 1.99922V0.999611C50.9934 0.447576 50.5458 0 49.9938 0Z" fill="#F2994A"/>
<path d="M52.9924 2.99878H51.9928C51.4407 2.99878 50.9932 3.44635 50.9932 3.99839C50.9932 4.55042 51.4407 4.998 51.9928 4.998H52.9924C53.5444 4.998 53.992 4.55042 53.992 3.99839C53.992 3.44635 53.5444 2.99878 52.9924 2.99878Z" fill="#F2994A"/>
<path d="M47.9943 2.99878H46.9947C46.4427 2.99878 45.9951 3.44635 45.9951 3.99839C45.9951 4.55042 46.4427 4.998 46.9947 4.998H47.9943C48.5464 4.998 48.9939 4.55042 48.9939 3.99839C48.9939 3.44635 48.5464 2.99878 47.9943 2.99878Z" fill="#F2994A"/>
<path d="M42.9962 10.9746H37.9771C37.4251 10.9746 36.9775 11.4222 36.9775 11.9742V16.9933C36.9775 17.5453 37.4251 17.9929 37.9771 17.9929H42.9962C43.5482 17.9929 43.9958 17.5453 43.9958 16.9933V11.9742C43.9958 11.4222 43.5482 10.9746 42.9962 10.9746ZM41.9966 15.9937H38.9768V12.9738H41.9966V15.9937Z" fill="#F2994A"/>
<path d="M35.7142 19.3221C35.3472 18.9304 34.7364 18.8984 34.3306 19.2496L24.3345 28.2461C23.9244 28.6155 23.8913 29.2473 24.2605 29.6576C24.6299 30.0676 25.2618 30.1008 25.672 29.7315L35.6681 20.735C36.071 20.3576 36.0917 19.725 35.7142 19.3221Z" fill="#F2994A"/>
<path d="M53.9923 22.991C53.4403 22.991 52.9927 23.4385 52.9927 23.9906V24.9902C52.9927 25.5422 53.4403 25.9898 53.9923 25.9898C54.5443 25.9898 54.9919 25.5422 54.9919 24.9902V23.9906C54.9919 23.4385 54.5443 22.991 53.9923 22.991Z" fill="#F2994A"/>
<path d="M58.2333 22.8192L57.5265 22.1125C57.1295 21.7289 56.4967 21.7398 56.1131 22.1369C55.739 22.5243 55.739 23.1384 56.1131 23.5259L56.8198 24.2326C57.2169 24.6162 57.8497 24.6052 58.2333 24.2081C58.6075 23.8207 58.6075 23.2065 58.2333 22.8192Z" fill="#F2994A"/>
<path d="M58.9899 18.9927H57.9903C57.4383 18.9927 56.9907 19.4403 56.9907 19.9923C56.9907 20.5443 57.4383 20.9919 57.9903 20.9919H58.9899C59.542 20.9919 59.9896 20.5443 59.9896 19.9923C59.9896 19.4403 59.542 18.9927 58.9899 18.9927Z" fill="#F2994A"/>
<path d="M58.2092 15.7518C57.8218 15.3777 57.2077 15.3777 56.8202 15.7518L56.1135 16.4585C55.7231 16.849 55.7233 17.4818 56.1137 17.8722C56.3012 18.0595 56.5553 18.1648 56.8202 18.1648C57.0854 18.1648 57.3395 18.0594 57.5269 17.8719L58.2337 17.1652C58.6173 16.7681 58.6063 16.1352 58.2092 15.7518Z" fill="#F2994A"/>
<path d="M53.9923 13.9946C53.4403 13.9946 52.9927 14.4422 52.9927 14.9942V15.9938C52.9927 16.5459 53.4403 16.9935 53.9923 16.9935C54.5443 16.9935 54.9919 16.5459 54.9919 15.9938V14.9942C54.9919 14.4422 54.5443 13.9946 53.9923 13.9946Z" fill="#F2994A"/>
<path d="M51.871 16.4585L51.1643 15.7518C50.7672 15.3683 50.1344 15.3792 49.7508 15.7763C49.3767 16.1637 49.3767 16.7778 49.7508 17.1653L50.4575 17.872C50.8546 18.2556 51.4874 18.2446 51.871 17.8475C52.2452 17.46 52.2452 16.8459 51.871 16.4585Z" fill="#F2994A"/>
<path d="M11.9593 4.32216C11.8416 3.96055 11.5289 3.69715 11.1526 3.64242L8.21878 3.21559L6.91029 0.557623C6.61865 0.062441 5.98077 -0.10262 5.48559 0.189017C5.3334 0.278607 5.20658 0.405432 5.11699 0.557623L3.8025 3.21559L0.868641 3.64242C0.322229 3.72127 -0.0567484 4.22819 0.0220959 4.77461C0.0534587 4.99215 0.155669 5.19319 0.312858 5.34676L2.43503 7.41595L1.93523 10.3378C1.83926 10.8815 2.20212 11.4 2.74578 11.496C2.9647 11.5346 3.19011 11.4992 3.38666 11.3954L6.01064 10.0119L8.63462 11.3914C9.1233 11.6483 9.72769 11.4605 9.98459 10.9718C10.0869 10.7773 10.1222 10.5545 10.0851 10.3378L9.58525 7.41595L11.7084 5.34676C11.9802 5.08074 12.0774 4.68364 11.9593 4.32216ZM7.80994 6.35137C7.57453 6.58065 7.46695 6.91102 7.52205 7.23502L7.76995 8.67946L6.47546 7.99673C6.18444 7.84391 5.83683 7.84391 5.54582 7.99673L4.24633 8.67846L4.49423 7.23402C4.55033 6.91127 4.44462 6.5814 4.21134 6.35137L3.16075 5.32876L4.61118 5.11785C4.93681 5.07061 5.21832 4.86607 5.36389 4.57106L6.01064 3.25857L6.65839 4.57106C6.80383 4.86582 7.08484 5.07024 7.41009 5.11785L8.85953 5.32876L7.80994 6.35137Z" fill="#F2994A"/>
<path d="M56.6129 50.1054H56.6089L56.1971 49.4877C53.8879 46.0344 50.2566 43.6863 46.16 42.9972C45.6134 42.9192 45.1071 43.2991 45.0292 43.8456C44.9538 44.3737 45.3063 44.8679 45.8301 44.9684C48.785 45.47 51.4778 46.9712 53.4581 49.2208C51.7932 49.5203 50.337 50.5203 49.4597 51.9667C48.3831 53.8948 49.0735 56.3305 51.0016 57.4071C52.9297 58.4837 55.3654 57.7933 56.442 55.8652C56.8532 55.0714 57.0752 54.1931 57.0907 53.2992C58.1543 54.844 58.2394 56.8613 57.3097 58.4902C57.028 58.965 57.1846 59.5782 57.6594 59.8599C58.1342 60.1415 58.7475 59.985 59.0291 59.5101C59.0381 59.4949 59.0467 59.4795 59.055 59.4638C60.8853 56.1946 59.8072 52.0635 56.6129 50.1054ZM54.6987 54.8896C54.1651 55.8563 52.949 56.2074 51.9823 55.6739C51.0157 55.1403 50.6645 53.9242 51.198 52.9576C51.201 52.9522 51.204 52.9467 51.207 52.9413C51.7969 51.9755 52.7919 51.328 53.914 51.18C54.0878 51.1753 54.2598 51.2153 54.4138 51.296C55.2574 51.7668 55.3024 53.808 54.6987 54.8896Z" fill="#F2994A"/>
</g>
<defs>
<clipPath id="clip0_23_270">
<rect width="60" height="60" fill="white"/>
</clipPath>
</defs>
</svg>
