<svg width="60" height="60" viewBox="0 0 60 60" fill="none" xmlns="http://www.w3.org/2000/svg">
<path d="M12.1293 48.3439C17.3473 39.2561 20.6213 29.1834 21.7437 18.7643L31.0375 28.0029C31.2234 28.188 31.4745 28.2924 31.737 28.2936C31.791 28.294 31.8454 28.2896 31.8986 28.2807C32.2155 28.2291 32.488 28.0283 32.6312 27.7413C34.5151 23.9811 33.7773 19.4368 30.8005 16.466L29.9833 15.6484H37.0122C37.5641 15.6488 38.012 15.2017 38.012 14.6498C38.0124 14.5417 37.9947 14.4345 37.9608 14.3325C36.6336 10.3413 32.8989 7.64986 28.6928 7.65389H27.3938L32.3844 2.63426C32.7739 2.2432 32.7723 1.61066 32.3812 1.22122C32.3054 1.14583 32.2183 1.08294 32.1228 1.03536C28.361 -0.850575 23.8143 -0.113213 20.8414 2.86527L19.8872 3.81952C19.5759 4.13277 19.2869 4.46658 19.0208 4.81893C18.7579 4.46658 18.4709 4.13277 18.1621 3.81952L17.2078 2.86527C14.2374 -0.111197 9.69309 -0.848559 5.93371 1.03536C5.43985 1.28209 5.23948 1.88238 5.48621 2.37584C5.53378 2.47139 5.59667 2.55847 5.67206 2.63426L10.6683 7.65389H9.35646C5.15039 7.64986 1.41519 10.3413 0.088425 14.3325C-0.0865425 14.8558 0.196066 15.4218 0.719759 15.5968C0.821756 15.631 0.928994 15.6484 1.03704 15.6484H8.05912L7.24193 16.466C4.26507 19.4368 3.5273 23.9811 5.41082 27.7413C5.55434 28.0283 5.82687 28.2291 6.14335 28.2807C6.19697 28.2896 6.25099 28.294 6.30541 28.2936C6.56948 28.2936 6.82266 28.1892 7.00972 28.0029L15.6642 19.3997C14.5926 28.9757 10.986 38.0926 5.2161 45.8097C3.8728 45.4569 2.51096 45.1792 1.13702 44.9784L0.51254 44.9155L0.312577 46.9051L0.89513 46.9619C1.89454 47.105 2.8875 47.307 3.87522 47.5356C3.67526 47.7863 3.47529 48.0411 3.26848 48.2883L4.80126 49.5703C12.4809 40.4397 17.0591 29.1043 17.8746 17.2013L19.0248 16.0584L19.886 16.9147C18.8353 29.6442 14.466 41.8762 7.21371 52.3903L8.8505 53.5357C9.63625 52.4141 10.3857 51.2502 11.1122 50.0641C15.7867 52.3 19.9142 55.5337 23.2039 59.5374L24.7496 58.2711C22.8044 55.9062 20.5757 53.7893 18.1133 51.9686H59.9966V49.9698H15.1526C14.1729 49.3784 13.1618 48.8426 12.1293 48.3439ZM31.3701 25.5135L20.8116 15.0158C23.5123 14.2095 26.4376 14.9412 28.4404 16.9243L29.3947 17.879C31.3939 19.8746 32.1502 22.7987 31.3701 25.5135ZM35.4875 13.65H27.2132C25.2862 12.7328 23.112 12.4732 21.0232 12.9114C22.4774 10.8666 24.831 9.65231 27.3402 9.65271H28.6892C31.514 9.64828 34.118 11.1794 35.4875 13.65ZM21.297 5.23257L22.2516 4.27831C24.2488 2.27868 27.1741 1.52197 29.8901 2.30247L23.9662 8.26144C22.0436 8.96897 20.3931 10.2647 19.2486 11.964C18.7837 9.51927 19.5505 7.002 21.3002 5.23257H21.297ZM15.792 4.27831L16.7462 5.23257C17.1913 5.68692 17.5775 6.19569 17.8956 6.7464C17.4429 7.79903 17.1844 8.92422 17.132 10.0684C16.235 9.28464 15.2017 8.67265 14.0842 8.26144L8.1591 2.30247C10.8743 1.52237 13.7988 2.27908 15.7948 4.27831H15.792ZM9.35323 9.65271H10.7026C13.2134 9.65029 15.5702 10.8642 17.026 12.9102C14.9385 12.4736 12.7651 12.7332 10.8392 13.65H2.56176C3.93086 11.1807 6.53279 9.64989 9.35646 9.65271H9.35323ZM6.67913 25.5135C5.89904 22.7987 6.65575 19.8746 8.65498 17.879L9.60923 16.9243C11.0469 15.4903 12.9965 14.6877 15.0276 14.6941C15.777 14.6945 16.5225 14.8014 17.2421 15.0118L6.67913 25.5135Z" fill="#F2994A"/>
</svg>
