<svg width="60" height="60" viewBox="0 0 60 60" fill="none" xmlns="http://www.w3.org/2000/svg">
<g clip-path="url(#clip0_23_227)">
<path d="M51.1843 3.79877C51.1433 3.25573 50.67 2.84862 50.1268 2.88975C49.5839 2.93077 49.1768 3.4042 49.2178 3.94725C49.4281 6.73233 49.1301 10.7945 46.5157 14.3308C43.8976 17.8721 40.1843 19.104 38.1893 19.766C35.235 20.7461 32.523 21.0014 30.0076 20.9355C30.228 20.4598 30.352 19.9305 30.352 19.3725C30.352 17.6355 29.1583 16.1719 27.5483 15.7589V14.4733H32.8133C34.807 14.4733 36.4289 12.8513 36.4289 10.8577V9.80592C36.4289 9.26123 35.9874 8.81991 35.4429 8.81991H30.6442L32.6172 2.45557C32.7974 1.87455 32.6938 1.26038 32.3328 0.770766C31.9719 0.281157 31.4161 0.000375275 30.8078 0.000375275H25.5762C25.0316 0.000375275 24.5901 0.441703 24.5901 0.986391C24.5901 1.53108 25.0316 1.97241 25.5762 1.97241H30.7024L28.5795 8.82002H24.5141L21.609 0.655571C21.4265 0.142524 20.8623 -0.124898 20.3495 0.057094C19.8363 0.239672 19.5685 0.803696 19.751 1.31674L22.4209 8.81979H17.7596C17.2151 8.81979 16.7736 9.26112 16.7736 9.80581V10.8576C16.7736 12.8512 18.3955 14.4731 20.3892 14.4731H25.5764V15.7927C24.0274 16.246 22.8922 17.6788 22.8922 19.3725C22.8922 19.6471 22.9228 19.9145 22.9795 20.1723C19.0637 19.6198 15.6586 19.3517 12.8499 21.9504C12.0855 22.6579 10.2813 24.6105 10.0391 27.4552C10.0227 27.6478 9.68037 32.1996 13.3651 34.6687C14.8328 35.6521 16.3547 35.9248 17.591 35.9248C18.0846 35.9248 18.5322 35.8813 18.913 35.8223C19.199 36.6453 19.7744 37.3335 20.5169 37.7655C16.8697 39.7905 14.3954 43.6819 14.3954 48.141C14.3954 50.348 15.0102 52.4918 16.1499 54.3468H13.376C10.8303 54.3468 8.75928 56.418 8.75928 58.9635V59.0141C8.75928 59.5588 9.20072 60.0001 9.74529 60.0001H43.4573C44.0019 60.0001 44.4433 59.5588 44.4433 59.0141V58.9635C44.4433 56.4178 42.3724 54.3468 39.8266 54.3468H18.5576C17.1424 52.5931 16.3674 50.4065 16.3674 48.141C16.3674 42.6893 20.8028 38.254 26.2544 38.254C31.7061 38.254 36.1415 42.6893 36.1415 48.141C36.1415 49.1792 35.9817 50.2013 35.6662 51.1789C35.4991 51.6971 35.7838 52.2528 36.3021 52.4199C36.8205 52.5871 37.376 52.3023 37.5432 51.784C37.9216 50.6105 38.1136 49.3847 38.1136 48.1409C38.1136 43.8155 35.7855 40.0242 32.3171 37.9525C33.5944 37.3941 34.4897 36.1191 34.4897 34.6383C34.4897 33.0112 33.409 31.632 31.9277 31.1799C31.6755 29.5532 30.6929 28.1656 29.3271 27.3613C29.9265 26.6992 30.2921 25.8218 30.2921 24.8605C30.2921 24.1398 30.0861 23.4666 29.7306 22.8955C32.4845 22.9852 35.5213 22.7289 38.81 21.6379C40.8555 20.9592 45.1117 19.547 48.1012 15.5033C51.2331 11.2674 51.3772 6.3517 51.1843 3.79877ZM18.0879 56.3186C18.0921 56.3186 18.0962 56.3193 18.1004 56.3193C18.1053 56.3193 18.1101 56.3188 18.1151 56.3186H39.8269C40.9558 56.3186 41.9219 57.0297 42.3006 58.0278H10.9023C11.2809 57.0298 12.247 56.3186 13.376 56.3186H18.0879ZM20.3891 12.5011C19.483 12.5011 18.7456 11.7638 18.7456 10.8577V10.7919H23.8183H29.3062H34.4569V10.8577C34.4569 11.7639 33.7196 12.5011 32.8134 12.5011H20.3891ZM26.3768 17.6336C26.437 17.6451 26.4989 17.6516 26.5624 17.6516C26.6423 17.6516 26.7197 17.6411 26.7942 17.6231C27.683 17.7099 28.3801 18.461 28.3801 19.3724C28.3801 19.953 28.0958 20.4672 27.6607 20.7874C26.8454 20.709 26.0515 20.6086 25.2767 20.5014C25.0199 20.1958 24.8644 19.802 24.8644 19.3724C24.8642 18.4865 25.5235 17.7536 26.3768 17.6336ZM26.5624 23.1023C27.5318 23.1023 28.3203 23.8908 28.3203 24.8602C28.3203 25.8294 27.5318 26.618 26.5624 26.618C25.5931 26.6181 24.8046 25.8294 24.8046 24.8602C24.8046 23.8909 25.5931 23.1023 26.5624 23.1023ZM18.8031 33.8384C17.8577 34.0107 16.0865 34.118 14.4629 33.03C11.7331 31.2008 12.001 27.6576 12.0041 27.6219C12.1876 25.4644 13.5935 23.9488 14.1893 23.3976C16.5363 21.2257 19.5269 21.6611 23.6661 22.2632C23.7308 22.2727 23.7964 22.2822 23.8616 22.2915C23.2245 22.961 22.8324 23.8654 22.8324 24.8602C22.8324 25.8359 23.2094 26.7248 23.8247 27.39C22.4851 28.1985 21.5238 29.5726 21.2747 31.1794C20.0437 31.5552 19.0903 32.5716 18.8031 33.8384ZM30.8742 32.9948C31.7804 32.9948 32.5176 33.732 32.5176 34.6382C32.5176 35.5444 31.7804 36.2816 30.8742 36.2816H22.3283C21.4221 36.2816 20.6849 35.5444 20.6849 34.6382C20.6849 33.732 21.4221 32.9948 22.3283 32.9948H30.8742ZM29.8741 31.0226H23.3286C23.7528 29.6168 25.0592 28.5903 26.6013 28.5903C28.1434 28.5903 29.4497 29.6171 29.8741 31.0226Z" fill="#F2994A"/>
</g>
<defs>
<clipPath id="clip0_23_227">
<rect width="60" height="60" fill="white"/>
</clipPath>
</defs>
</svg>
