<svg width="40" height="40" viewBox="0 0 40 40" fill="none" xmlns="http://www.w3.org/2000/svg">
<g clip-path="url(#clip0_34_1021)">
<path d="M30.9951 8.97228C30.8264 8.80361 30.6049 8.71924 30.3833 8.71924C30.1618 8.71924 29.9402 8.80353 29.7716 8.97221C29.4342 9.30955 29.4342 9.85845 29.7716 10.1957C30.109 10.5332 30.6578 10.5331 30.995 10.1957V10.1956C31.1584 10.0322 31.2484 9.81502 31.2484 9.58392C31.2485 9.35299 31.1585 9.13572 30.9951 8.97228Z" fill="#F2994A"/>
<path d="M16.6723 21.6694C16.4381 21.4351 16.217 21.3218 16.0085 21.3287C15.8002 21.3358 15.5929 21.4422 15.3869 21.6483L14.6914 22.3437L15.998 23.6503L16.6934 22.9548C16.8995 22.7488 17.0059 22.5416 17.013 22.3332C17.0201 22.1249 16.9066 21.9037 16.6723 21.6694Z" fill="#F2994A"/>
<path d="M39.9419 15.4407L38.0361 4.89968C37.7673 3.41242 36.5874 2.2325 35.1002 1.96359L24.5591 0.0578934C23.3843 -0.154528 22.1796 0.222659 21.3358 1.06649L1.06679 21.3356C0.378905 22.0235 0 22.9381 0 23.9109C0 24.8837 0.378827 25.7984 1.06679 26.4862L13.5136 38.933C14.2015 39.6209 15.1161 39.9998 16.089 39.9998C17.0618 39.9998 17.9764 39.6209 18.6643 38.933L38.9333 18.664C39.7771 17.82 40.1541 16.615 39.9419 15.4407ZM15.0041 30.2144C14.9549 30.3807 14.8554 30.5387 14.7057 30.6885C14.5557 30.8385 14.3978 30.9379 14.2315 30.987C14.0653 31.0363 13.9285 31.0069 13.8206 30.8991L9.36014 26.4386C9.25248 26.331 9.21608 26.2011 9.25123 26.0489C9.28623 25.8967 9.36944 25.7551 9.50061 25.6239L11.9381 23.1864C12.0458 23.0787 12.1747 23.0436 12.3244 23.0809C12.4744 23.1184 12.6123 23.2003 12.7388 23.3269C12.8746 23.4628 12.9601 23.6068 12.9953 23.7589C13.0303 23.9112 12.9963 24.0387 12.8933 24.1417L11.074 25.961L12.2611 27.1482L13.3218 26.0875C13.4247 25.9846 13.5477 25.9459 13.6906 25.9716C13.8334 25.9974 13.9634 26.0689 14.0804 26.1859C14.1881 26.2936 14.256 26.4178 14.2841 26.5582C14.3121 26.6986 14.2724 26.8228 14.1647 26.9305L13.104 27.9912L14.9163 29.8035C15.0242 29.9113 15.0533 30.0482 15.0041 30.2144ZM20.9749 24.1382C20.9492 24.4075 20.8543 24.6242 20.6904 24.7881C20.5264 24.9521 20.3415 25.0011 20.1354 24.9356L17.3047 24.0295L16.8411 24.4931L18.5339 26.1859C18.6417 26.2937 18.6708 26.4307 18.6217 26.5969C18.5724 26.7633 18.4729 26.9213 18.3232 27.071C18.1732 27.221 18.0153 27.3204 17.8491 27.3695C17.6828 27.4189 17.546 27.3895 17.4382 27.2817L12.9707 22.8142C12.8817 22.7252 12.8361 22.6164 12.8337 22.4875C12.8315 22.3588 12.8795 22.2451 12.9779 22.1468L14.4319 20.6928C15.5839 19.5408 16.6611 19.4658 17.6632 20.4679C18.3936 21.1986 18.5856 21.9572 18.2391 22.7438L20.6484 23.4393C20.7047 23.4487 20.7585 23.4792 20.81 23.5307C20.9457 23.6666 21.0007 23.869 20.9749 24.1382ZM24.8559 20.5383L22.3553 23.0389C22.2241 23.1701 22.0825 23.2532 21.9302 23.2883C21.778 23.3235 21.6482 23.2871 21.5404 23.1793L17.08 18.7189C16.9723 18.6112 16.9359 18.4814 16.9711 18.3292C17.0061 18.1769 17.0893 18.0354 17.2204 17.9041L19.7211 15.4035C19.8288 15.2958 19.9577 15.2607 20.1074 15.298C20.2574 15.3355 20.3954 15.4175 20.5218 15.544C20.6576 15.6799 20.7432 15.8239 20.7783 15.976C20.8133 16.1283 20.7793 16.2558 20.6764 16.3588L18.7938 18.2414L19.981 19.4286L21.0347 18.3748C21.1376 18.2719 21.2607 18.2332 21.4035 18.2589C21.5463 18.2847 21.6764 18.3561 21.7933 18.4731C21.9011 18.5808 21.9689 18.705 21.997 18.8454C22.025 18.9859 21.9853 19.1101 21.8776 19.2178L20.8239 20.2715L22.0179 21.4656L23.9005 19.583C24.0034 19.4801 24.1311 19.4461 24.2833 19.4811C24.4356 19.5164 24.5794 19.6018 24.7153 19.7376C24.8416 19.864 24.9237 20.0022 24.9612 20.152C24.9988 20.3019 24.9635 20.4306 24.8559 20.5383ZM28.6419 16.7522L26.1411 19.253C26.01 19.3842 25.8683 19.4673 25.716 19.5024C25.5639 19.5375 25.4341 19.5012 25.3263 19.3934L20.8658 14.9329C20.7582 14.8253 20.7218 14.6954 20.7569 14.5433C20.792 14.391 20.8751 14.2494 21.0063 14.1182L23.5069 11.6176C23.6146 11.5099 23.7435 11.4747 23.8932 11.5121C24.0431 11.5497 24.1811 11.6315 24.3076 11.7581C24.4434 11.894 24.5289 12.0379 24.5641 12.1901C24.5991 12.3424 24.5651 12.4699 24.4621 12.5729L22.5796 14.4554L23.7668 15.6426L24.8205 14.5889C24.9234 14.486 25.0464 14.4472 25.1892 14.4729C25.3321 14.4987 25.4621 14.5703 25.579 14.6872C25.6867 14.795 25.7546 14.9191 25.7828 15.0595C25.8107 15.2 25.771 15.3242 25.6634 15.4318L24.6096 16.4856L25.8037 17.6797L27.6863 15.7971C27.7892 15.6942 27.9169 15.6603 28.0691 15.6953C28.2214 15.7304 28.3653 15.8158 28.5011 15.9517C28.6274 16.078 28.7095 16.2163 28.7471 16.3661C28.7849 16.5158 28.7496 16.6446 28.6419 16.7522ZM32.6539 11.8544C32.028 12.4804 31.2057 12.7933 30.3835 12.7933C29.5612 12.7933 28.739 12.4804 28.1131 11.8544C26.861 10.6024 26.861 8.56538 28.1131 7.31343C29.3649 6.06148 31.4021 6.0614 32.6539 7.31343C33.2605 7.91991 33.5944 8.72624 33.5944 9.58389C33.5944 10.4415 33.2604 11.2479 32.6539 11.8544Z" fill="#F2994A"/>
</g>
<defs>
<clipPath id="clip0_34_1021">
<rect width="40" height="40" fill="white"/>
</clipPath>
</defs>
</svg>
