<svg width="46" height="46" viewBox="0 0 46 46" fill="none" xmlns="http://www.w3.org/2000/svg">
<g clip-path="url(#clip0_34_1031)">
<path d="M43.0597 22.1049C42.9153 22.0745 42.779 22.046 42.6577 22.0145C41.2832 21.657 40.6558 21.4611 40.1919 20.5655L38.4349 17.0082C37.8702 15.9181 36.4121 15.0311 35.1845 15.0311H32.0563V10.9234C32.0563 10.1858 31.4562 9.58569 30.7185 9.58569L8.93093 9.60757C8.21307 9.60757 7.67174 10.178 7.67174 10.9346V12.1487H2.09034C0.937759 12.1488 0 13.0865 0 14.2392C0 15.3919 0.937759 16.3295 2.09034 16.3295H7.67164V18.333H4.01737C2.86479 18.333 1.92703 19.2708 1.92703 20.4234C1.92703 21.576 2.86479 22.5137 4.01737 22.5137H7.67164V24.5172H5.94441C4.79183 24.5172 3.85407 25.455 3.85407 26.6076C3.85407 27.7602 4.79183 28.6979 5.94441 28.6979H7.67164V30.7934C7.67164 31.531 8.27175 32.1311 9.00931 32.1311H11.2757C11.6286 34.5501 13.7165 36.414 16.2322 36.414C18.7481 36.414 20.8361 34.5501 21.1891 32.1311H30.3612C30.4089 32.1311 30.4577 32.1279 30.5064 32.1247C30.8567 34.5468 32.9459 36.414 35.4638 36.414C37.9797 36.414 40.0676 34.5501 40.4207 32.1311H43.676C44.9575 32.1311 46.0001 31.0886 46.0001 29.8072V25.864C46 22.7218 44.2305 22.3505 43.0597 22.1049ZM35.4638 29.5837C36.4683 29.5837 37.2855 30.4006 37.2855 31.4048C37.2855 32.409 36.4683 33.2259 35.4638 33.2259C34.4597 33.2259 33.6427 32.409 33.6427 31.4048C33.6427 30.4006 34.4597 29.5837 35.4638 29.5837ZM32.0563 21.8216V16.9712H34.4468C35.3656 16.9712 36.499 17.6606 36.9197 18.4724L38.4832 21.6379C38.5163 21.702 38.5507 21.763 38.5864 21.8215H32.0563V21.8216ZM18.0539 31.4047C18.0539 32.4088 17.2367 33.2258 16.2322 33.2258C15.2281 33.2258 14.4113 32.4089 14.4113 31.4047C14.4113 30.4005 15.2281 29.5836 16.2322 29.5836C17.2367 29.5837 18.0539 30.4006 18.0539 31.4047Z" fill="#F2994A"/>
</g>
<defs>
<clipPath id="clip0_34_1031">
<rect width="46" height="46" fill="white"/>
</clipPath>
</defs>
</svg>
