<svg width="34" height="34" viewBox="0 0 34 34" fill="none" xmlns="http://www.w3.org/2000/svg">
<g clip-path="url(#clip0_34_1035)">
<path d="M22.2703 17.1294C21.793 17.1294 21.4048 17.5177 21.4048 17.9949V20.8877C21.4048 21.365 21.7931 21.7532 22.2703 21.7532H33.9998V17.1295H22.2703V17.1294ZM23.7299 20.7756C22.993 20.7756 22.3955 20.1782 22.3955 19.4412C22.3955 18.7043 22.9929 18.1068 23.7299 18.1068C24.4668 18.1068 25.0642 18.7042 25.0642 19.4412C25.0642 20.1782 24.4668 20.7756 23.7299 20.7756Z" fill="#F2994A"/>
<path d="M22.2705 15.1097H34V10.1568C34 8.56581 32.7056 7.27148 31.1146 7.27148H30.7106H8.87872H2.88535C1.29439 7.27148 0 8.56581 0 10.1568V30.7459C0 32.3369 1.29439 33.6313 2.88535 33.6313H31.1146C32.7056 33.6313 33.9999 32.3369 33.9999 30.7459V23.7732H22.2705C20.6794 23.7732 19.3851 22.4789 19.3851 20.8879V17.9951C19.3851 16.4041 20.6796 15.1097 22.2705 15.1097Z" fill="#F2994A"/>
<path d="M28.2508 0.368652L14.5474 5.2515H29.9907L28.2508 0.368652Z" fill="#F2994A"/>
</g>
<defs>
<clipPath id="clip0_34_1035">
<rect width="34" height="34" fill="white"/>
</clipPath>
</defs>
</svg>
