<svg width="40" height="40" viewBox="0 0 40 40" fill="none" xmlns="http://www.w3.org/2000/svg">
<path d="M23.826 16.6113C25.3059 15.7569 26.9464 15.2225 28.6335 15.0355C28.6409 15.0229 28.6487 15.0106 28.6561 14.9979C31.413 10.2227 29.7711 4.09475 24.9959 1.33774C20.2207 -1.41919 14.0927 0.222753 11.3357 4.99803C9.48075 8.21105 9.61732 12.0363 11.3598 15.0352C13.0477 15.2219 14.689 15.7565 16.1695 16.6113C17.6746 17.4803 18.9536 18.6325 19.9517 19.9954C19.9608 19.9954 19.97 19.9959 19.979 19.9959C20.0008 19.9959 20.0224 19.9949 20.0441 19.9949C21.0422 18.6322 22.3211 17.4802 23.826 16.6113ZM19.7225 15.1489L18.9989 15.6244C18.8005 15.7547 18.5772 15.8171 18.3564 15.8171C17.975 15.8171 17.6011 15.6312 17.3759 15.2887C17.0455 14.7859 17.1527 14.1231 17.6037 13.7466C17.1527 13.3701 17.0455 12.7074 17.3759 12.2046C17.7313 11.6638 18.4577 11.5132 18.9988 11.8688L19.7224 12.3444L20.446 11.8688C20.9869 11.5134 21.7134 11.6638 22.0689 12.2046C22.3993 12.7073 22.2921 13.3701 21.8411 13.7466C22.2921 14.1231 22.3993 14.7858 22.0689 15.2887C21.8438 15.6311 21.4698 15.8171 21.0884 15.8171C20.8676 15.8171 20.6443 15.7548 20.4459 15.6244L19.7225 15.1489Z" fill="#F2994A"/>
<path d="M18.6886 22.3601C17.8399 20.8615 16.5943 19.5627 14.9979 18.641C10.2227 15.884 4.09468 17.526 1.33775 22.3012C-1.41918 27.0764 0.222755 33.2043 4.99795 35.9614C6.56888 36.8684 8.28551 37.2992 9.98104 37.2992C13.4394 37.2992 16.808 35.5054 18.658 32.3012C18.6683 32.2833 18.678 32.2652 18.6882 32.2472C17.5657 29.6913 17.3452 26.8485 18.0796 24.1077C18.2411 23.5052 18.445 22.9217 18.6886 22.3601ZM9.6712 31.547C9.82932 32.0805 9.58917 32.6669 9.07448 32.9256C8.90566 33.0104 8.72597 33.0508 8.54902 33.0508C8.12004 33.0508 7.70692 32.8143 7.50106 32.405L7.15286 31.7122L6.37888 31.757C6.35583 31.7583 6.33294 31.759 6.31013 31.759C5.69388 31.759 5.17733 31.2778 5.14131 30.6548C5.10811 30.0797 5.49576 29.5785 6.03685 29.4487C5.87873 28.9151 6.11888 28.3288 6.63357 28.0701C7.21169 27.7794 7.91613 28.0125 8.20691 28.5908L8.55511 29.2835L9.32909 29.2388C9.9762 29.2028 10.5293 29.6949 10.5667 30.341C10.6 30.916 10.2124 31.4172 9.6712 31.547Z" fill="#F2994A"/>
<path d="M35.8295 16.4321C35.9035 16.3614 35.9769 16.2899 36.0495 16.2173C38.8808 13.386 40.2996 9.47207 39.9419 5.47921C39.8998 5.00867 39.5269 4.63578 39.0564 4.59367C36.4734 4.36219 33.9241 4.87516 31.6789 6.03202C32.6512 8.90161 32.5714 12.1137 31.2686 15.0279C32.8803 15.1973 34.4281 15.6808 35.8295 16.4321Z" fill="#F2994A"/>
<path d="M38.6586 22.3009C35.9016 17.5257 29.7737 15.8838 24.9984 18.6407C20.2232 21.3977 18.5813 27.5256 21.3382 32.3009C23.1884 35.5054 26.5564 37.2988 30.0152 37.2988C31.7104 37.2988 33.4277 36.8679 34.9983 35.961C39.7736 33.2041 41.4155 27.0762 38.6586 22.3009ZM34.855 30.6545C34.819 31.2776 34.3024 31.7588 33.6862 31.7588C33.6634 31.7588 33.6406 31.7581 33.6174 31.7568L32.8435 31.712L32.4953 32.4048C32.2895 32.8141 31.8763 33.0505 31.4473 33.0505C31.2704 33.0505 31.0907 33.0103 30.9218 32.9254C30.4072 32.6666 30.167 32.0803 30.3251 31.5468C29.784 31.417 29.3963 30.9158 29.4296 30.3407C29.467 29.6946 30.0214 29.2016 30.6672 29.2385L31.4411 29.2832L31.7893 28.5905C32.08 28.0123 32.7845 27.7792 33.3627 28.0698C33.8774 28.3286 34.1175 28.9149 33.9594 29.4484C34.5006 29.5783 34.8882 30.0795 34.855 30.6545Z" fill="#F2994A"/>
</svg>
