<svg width="50" height="69" viewBox="0 0 50 69" fill="none" xmlns="http://www.w3.org/2000/svg">
<path d="M25 9C11.2142 9 0 20.2142 0 34C0 47.7858 11.2142 59 25 59C38.7858 59 50 47.7839 50 34C50 20.2161 38.7858 9 25 9ZM25 55.1271C13.3521 55.1271 3.87295 45.6499 3.87295 34C3.87295 22.3501 13.3521 12.8729 25 12.8729C36.6479 12.8729 46.1271 22.3501 46.1271 34C46.1271 45.6499 36.6499 55.1271 25 55.1271Z" fill="white"/>
<path d="M34.6822 31.8892H26.9363V24.1433C26.9363 23.0744 26.0707 22.2068 24.9998 22.2068C23.9289 22.2068 23.0633 23.0744 23.0633 24.1433V31.8892H15.3174C14.2465 31.8892 13.3809 32.7568 13.3809 33.8257C13.3809 34.8947 14.2465 35.7623 15.3174 35.7623H23.0633V43.5082C23.0633 44.5771 23.9289 45.4447 24.9998 45.4447C26.0707 45.4447 26.9363 44.5771 26.9363 43.5082V35.7623H34.6822C35.7531 35.7623 36.6188 34.8947 36.6188 33.8257C36.6188 32.7568 35.7531 31.8892 34.6822 31.8892Z" fill="white"/>
</svg>
